<?xml version="1.0" standalone="no"?>
<!DOCTYPE svg PUBLIC "-//W3C//DTD SVG 20010904//EN"
 "http://www.w3.org/TR/2001/REC-SVG-20010904/DTD/svg10.dtd">
<svg version="1.0" xmlns="http://www.w3.org/2000/svg"
 width="216.000000pt" height="216.000000pt" viewBox="0 0 216.000000 216.000000"
 preserveAspectRatio="xMidYMid meet">
<metadata>
Created by potrace 1.11, written by Peter Selinger 2001-2013
</metadata>
<g transform="translate(0.000000,216.000000) scale(0.100000,-0.100000)"
fill="#000000" stroke="none">
<path d="M910 2055 c-202 -40 -332 -105 -487 -242 -233 -207 -361 -527 -332
-833 5 -52 6 -102 4 -111 -3 -10 -19 -22 -35 -28 -40 -14 -38 -22 2 -10 40 11
38 11 38 -1 0 -5 -15 -16 -32 -24 -21 -9 -27 -15 -15 -15 10 -1 27 4 38 9 13
7 19 7 19 1 0 -6 -13 -17 -30 -26 -33 -17 -41 -28 -13 -18 15 6 16 4 6 -8 -17
-21 25 -132 46 -124 11 4 11 3 2 -9 -10 -12 -8 -19 7 -34 11 -11 18 -23 15
-26 -3 -2 16 -37 42 -75 224 -333 615 -516 1010 -472 493 56 876 425 952 916
28 185 1 392 -76 576 -37 90 -99 191 -112 184 -5 -4 -6 0 -3 8 3 9 -17 38 -53
73 -31 33 -58 62 -59 67 -1 4 -2 10 -3 14 0 4 -6 2 -13 -5 -17 -17 -29 -15
-22 3 9 24 -4 17 -22 -10 -16 -25 -16 -27 12 -57 l29 -32 -40 33 c-57 49 -61
58 -33 88 23 26 8 23 -24 -4 -15 -13 -24 -10 -80 30 -124 88 -252 138 -410
162 -117 18 -239 18 -328 0z m590 -125 c51 -21 64 -31 62 -46 -8 -42 -204
-348 -216 -337 -4 4 -4 0 -1 -9 4 -9 1 -19 -6 -24 -8 -5 -10 -3 -5 7 4 8 -2 3
-13 -11 -11 -14 -37 -56 -57 -95 -59 -114 -155 -265 -164 -260 -5 3 -12 0 -16
-6 -4 -8 -3 -9 4 -5 25 15 10 -14 -65 -124 -86 -126 -124 -159 -214 -184 -71
-21 -169 -21 -195 -1 -19 15 -18 15 6 35 138 113 267 280 455 590 332 549 306
510 334 503 14 -3 55 -18 91 -33z m250 -183 c0 -6 -26 -52 -59 -102 -129 -198
-365 -592 -416 -695 -69 -138 -115 -272 -122 -362 -4 -45 -11 -72 -20 -75 -41
-16 -140 73 -161 145 -7 22 -12 73 -12 115 0 68 4 83 38 149 21 40 78 135 127
212 50 76 140 215 200 310 181 281 267 411 278 418 12 7 147 -99 147 -115z
m-1473 -613 c23 -34 77 -97 120 -141 163 -167 237 -204 366 -183 40 7 96 23
126 36 29 13 54 24 55 24 0 0 1 -46 1 -103 1 -103 11 -140 57 -198 44 -55 254
-145 426 -184 58 -14 110 -29 116 -35 16 -16 -13 -62 -54 -83 -28 -14 -48 -17
-98 -12 -108 11 -313 87 -504 187 -87 46 -102 50 -141 45 -37 -5 -48 -3 -63
14 -10 12 -19 26 -20 32 -3 29 -17 53 -42 72 -26 18 -27 18 -12 0 14 -17 12
-17 -20 2 -93 58 -349 311 -335 332 2 5 -3 15 -13 22 -16 13 -16 13 -2 -5 9
-12 10 -17 3 -12 -7 4 -25 28 -40 53 -22 39 -27 58 -27 114 1 36 4 72 8 78 16
26 51 5 93 -55z m-151 -439 c-11 -8 -25 -15 -30 -15 -6 1 0 7 14 15 32 19 40
18 16 0z m514 -215 c20 -28 20 -50 0 -50 -14 0 -52 59 -45 70 10 17 23 11 45
-20z m90 -70 c0 -14 -34 -12 -48 2 -7 7 -12 18 -12 25 0 11 6 10 30 -2 17 -9
30 -20 30 -25z m-145 -22 c16 -12 40 -33 53 -45 14 -13 30 -23 37 -23 7 0 18
-7 25 -15 11 -13 7 -15 -26 -15 -52 0 -104 28 -127 67 -30 52 -9 68 38 31z"/>
<path d="M1031 1080 c-23 -27 -58 -62 -78 -77 l-36 -27 -28 34 -29 34 -32 -30
-32 -29 32 38 c61 72 32 51 -68 -48 -55 -55 -100 -101 -100 -102 0 -1 33 -1
73 1 127 4 211 58 307 198 22 32 38 58 36 58 -1 0 -22 -22 -45 -50z"/>
<path d="M345 840 c10 -11 20 -20 23 -20 3 0 -3 9 -13 20 -10 11 -20 20 -23
20 -3 0 3 -9 13 -20z"/>
<path d="M390 785 c13 -14 26 -25 28 -25 3 0 -5 11 -18 25 -13 14 -26 25 -28
25 -3 0 5 -11 18 -25z"/>
<path d="M756 760 c-98 -30 -123 -158 -45 -225 78 -65 209 4 209 110 0 49 -32
100 -72 114 -36 13 -52 13 -92 1z m109 -50 c3 -5 -1 -10 -9 -10 -8 0 -18 5
-21 10 -3 6 1 10 9 10 8 0 18 -4 21 -10z m-135 -4 c0 -3 -4 -8 -10 -11 -5 -3
-10 -1 -10 4 0 6 5 11 10 11 6 0 10 -2 10 -4z m-13 -70 c0 -25 5 -52 13 -60
18 -23 -4 -20 -24 3 -18 20 -24 69 -12 90 14 22 23 10 23 -33z m163 5 c0 -56
-17 -60 -22 -6 -2 31 1 45 9 45 8 0 13 -14 13 -39z"/>
<path d="M430 757 c0 -2 15 -16 33 -33 l32 -29 -29 33 c-28 30 -36 37 -36 29z"/>
<path d="M694 505 c11 -8 24 -15 30 -15 5 0 1 7 -10 15 -10 8 -23 14 -29 14
-5 0 -1 -6 9 -14z"/>
<path d="M20 990 c-13 -9 -13 -10 0 -9 8 0 24 4 35 9 l20 9 -20 0 c-11 0 -27
-4 -35 -9z"/>
</g>
</svg>
